# xmcd
#
# Track frame offsets: 
#        150
#        10118
#        35583
#        53582
#        65311
#        72569
#        77501
#        90588
#        106151
#        121686
#        136560
#        152951
#        170843
#        182039
#        209970
#
# Disc length: 2977 seconds
#
# Revision: 0
# Processed by: cddbd v1.5.2PL0 Copyright (c) Steve Scherf et al.
# Submitted via: ExactAudioCopyFreeDBPlugin 1.0
#
DISCID=c60b9f0f
DTITLE=Howe Gelb - Gathered
DYEAR=2019
DGENRE=Blues
TTITLE0=On The Fence
TTITLE1=A Thousand Kisses Deep (feat. M.Ward)
TTITLE2=Not the End of the World (feat. Anna Karina)
TTITLE3=Anna
TTITLE4=Give It Up
TTITLE5=The Open Road
TTITLE6=Moon River (feat. Talula Gelb)
TTITLE7=Flyin' Off The Rails
TTITLE8=Gathered (feat. Pieta Brown)
TTITLE9=All You Need To Know
TTITLE10=The Park At Dark
TTITLE11=My Little World
TTITLE12=Presumptuous (feat. Kira Skow)
TTITLE13=Storyteller
TTITLE14=Steadfast
EXTD=
EXTT0=
EXTT1=
EXTT2=
EXTT3=
EXTT4=
EXTT5=
EXTT6=
EXTT7=
EXTT8=
EXTT9=
EXTT10=
EXTT11=
EXTT12=
EXTT13=
EXTT14=
PLAYORDER=
